<svg width="38" height="38" viewBox="0 0 38 38" fill="none" xmlns="http://www.w3.org/2000/svg">
<path d="M19.0001 3.16675C10.2601 3.16675 3.16675 10.2601 3.16675 19.0001C3.16675 27.7401 10.2601 34.8334 19.0001 34.8334C27.7401 34.8334 34.8334 27.7401 34.8334 19.0001C34.8334 10.2601 27.7401 3.16675 19.0001 3.16675ZM19.0001 7.91675C21.6284 7.91675 23.7501 10.0384 23.7501 12.6667C23.7501 15.2951 21.6284 17.4167 19.0001 17.4167C16.3717 17.4167 14.2501 15.2951 14.2501 12.6667C14.2501 10.0384 16.3717 7.91675 19.0001 7.91675ZM19.0001 30.4001C15.0417 30.4001 11.5426 28.3734 9.50008 25.3017C9.54758 22.1509 15.8334 20.4251 19.0001 20.4251C22.1509 20.4251 28.4526 22.1509 28.5001 25.3017C26.4576 28.3734 22.9584 30.4001 19.0001 30.4001Z" fill="#565656" fill-opacity="0.6"/>
</svg>
