<svg width="62" height="62" viewBox="0 0 62 62" fill="none" xmlns="http://www.w3.org/2000/svg">
<path d="M31.0001 5.16675C16.7401 5.16675 5.16675 16.7401 5.16675 31.0001C5.16675 45.2601 16.7401 56.8334 31.0001 56.8334C45.2601 56.8334 56.8334 45.2601 56.8334 31.0001C56.8334 16.7401 45.2601 5.16675 31.0001 5.16675ZM31.0001 12.9167C35.2884 12.9167 38.7501 16.3784 38.7501 20.6667C38.7501 24.9551 35.2884 28.4167 31.0001 28.4167C26.7118 28.4167 23.2501 24.9551 23.2501 20.6667C23.2501 16.3784 26.7118 12.9167 31.0001 12.9167ZM31.0001 49.6001C24.5417 49.6001 18.8326 46.2934 15.5001 41.2817C15.5776 36.1409 25.8334 33.3251 31.0001 33.3251C36.1409 33.3251 46.4226 36.1409 46.5001 41.2817C43.1676 46.2934 37.4584 49.6001 31.0001 49.6001Z" fill="#565656"/>
</svg>
