<svg width="18" height="18" viewBox="0 0 18 18" fill="none" xmlns="http://www.w3.org/2000/svg">
<path d="M3 12C3 12.66 3.2925 13.2525 3.75 13.665V15C3.75 15.4125 4.0875 15.75 4.5 15.75H5.25C5.6625 15.75 6 15.4125 6 15V14.25H12V15C12 15.4125 12.3375 15.75 12.75 15.75H13.5C13.9125 15.75 14.25 15.4125 14.25 15V13.665C14.7075 13.2525 15 12.66 15 12V4.5C15 1.875 12.315 1.5 9 1.5C5.685 1.5 3 1.875 3 4.5V12ZM5.625 12.75C5.0025 12.75 4.5 12.2475 4.5 11.625C4.5 11.0025 5.0025 10.5 5.625 10.5C6.2475 10.5 6.75 11.0025 6.75 11.625C6.75 12.2475 6.2475 12.75 5.625 12.75ZM12.375 12.75C11.7525 12.75 11.25 12.2475 11.25 11.625C11.25 11.0025 11.7525 10.5 12.375 10.5C12.9975 10.5 13.5 11.0025 13.5 11.625C13.5 12.2475 12.9975 12.75 12.375 12.75ZM13.5 8.25H4.5V4.5H13.5V8.25Z" fill="black"/>
</svg>
