<svg width="20" height="19" viewBox="0 0 20 19" fill="none" xmlns="http://www.w3.org/2000/svg">
<path d="M10.0176 9.33838C12.17 9.33838 13.915 7.60232 13.915 5.4608C13.915 3.31929 12.17 1.58325 10.0176 1.58325C7.86506 1.58325 6.12012 3.31929 6.12012 5.4608C6.12012 7.60232 7.86506 9.33838 10.0176 9.33838Z" fill="#FD6D03"/>
<path d="M12.0478 10.9543H7.98799C5.63329 10.9543 3.68457 12.8931 3.68457 15.2358C3.68457 15.8012 3.92816 16.286 4.41534 16.5283C5.14611 16.9322 6.77004 17.4169 10.0179 17.4169C13.2658 17.4169 14.8897 16.9322 15.6204 16.5283C16.0264 16.286 16.3512 15.8012 16.3512 15.2358C16.3512 12.8123 14.4025 10.9543 12.0478 10.9543Z" fill="#FD6D03"/>
</svg>
