<svg width="18" height="15" viewBox="0 0 18 15" fill="none" xmlns="http://www.w3.org/2000/svg">
<g clip-path="url(#clip0_303_2339)">
<path d="M4.72706 0C3.16223 0 1.89372 2.51836 1.89372 5.625V10.6661C1.89372 11.8708 1.60449 12.5051 0.973774 14.383C0.871951 14.6865 1.0995 15 1.4218 15H9.71285C10.1193 15 10.4802 14.7419 10.6089 14.359C10.9876 13.2316 11.3382 12.2379 11.3382 10.6661V5.625C11.3382 3.17578 12.0368 1.12734 13.122 0H4.72706ZM3.78261 6.5625C3.52171 6.5625 3.31039 6.35273 3.31039 6.09375C3.31039 5.83477 3.52171 5.625 3.78261 5.625C4.04352 5.625 4.25484 5.83477 4.25484 6.09375C4.25484 6.35273 4.04352 6.5625 3.78261 6.5625ZM5.67151 6.5625C5.4106 6.5625 5.19928 6.35273 5.19928 6.09375C5.19928 5.83477 5.4106 5.625 5.67151 5.625C5.93241 5.625 6.14373 5.83477 6.14373 6.09375C6.14373 6.35273 5.93241 6.5625 5.67151 6.5625ZM7.5604 6.5625C7.29949 6.5625 7.08817 6.35273 7.08817 6.09375C7.08817 5.83477 7.29949 5.625 7.5604 5.625C7.8213 5.625 8.03262 5.83477 8.03262 6.09375C8.03262 6.35273 7.8213 6.5625 7.5604 6.5625ZM9.44929 6.5625C9.18839 6.5625 8.97707 6.35273 8.97707 6.09375C8.97707 5.83477 9.18839 5.625 9.44929 5.625C9.71019 5.625 9.92151 5.83477 9.92151 6.09375C9.92151 6.35273 9.71019 6.5625 9.44929 6.5625ZM15.116 0C13.5511 0 12.2826 2.51836 12.2826 5.625C12.2826 8.73164 13.5511 11.25 15.116 11.25C16.6808 11.25 17.9493 8.73164 17.9493 5.625C17.9493 2.51836 16.6808 0 15.116 0ZM15.116 7.5C14.5944 7.5 14.1715 6.66064 14.1715 5.625C14.1715 4.58936 14.5944 3.75 15.116 3.75C15.6375 3.75 16.0604 4.58936 16.0604 5.625C16.0604 6.66064 15.6375 7.5 15.116 7.5Z" fill="#FD6D03"/>
</g>
<defs>
<clipPath id="clip0_303_2339">
<rect width="17" height="15" fill="white" transform="translate(0.949219)"/>
</clipPath>
</defs>
</svg>
