<svg width="18" height="11" viewBox="0 0 18 11" fill="none" xmlns="http://www.w3.org/2000/svg">
<path d="M16.3931 8.36941C16.3682 6.40575 15.5844 4.56351 14.187 3.18232C12.9543 1.9646 11.3689 1.22875 9.66373 1.0709C9.7056 0.976504 9.72911 0.872114 9.72911 0.762145C9.72911 0.341195 9.38788 0 8.96696 0C8.54601 0 8.20482 0.341229 8.20482 0.762145C8.20482 0.87208 8.22826 0.976471 8.2702 1.0709C6.56505 1.22878 4.97963 1.96463 3.74697 3.18232C2.34948 4.56347 1.56576 6.40571 1.54079 8.36941L1.53418 8.89641H16.3998L16.3931 8.36941ZM4.07648 7.10965L3.06826 6.85014C3.0936 6.75196 3.71114 4.43823 5.82781 3.51674L6.24344 4.47117C4.58717 5.19211 4.08132 7.09056 4.07648 7.10965Z" fill="#FD6D03"/>
<path d="M17.4668 9.87671H0.466797V10.9175H17.4668V9.87671Z" fill="#FD6D03"/>
</svg>
