<svg width="20" height="20" viewBox="0 0 20 20" fill="none" xmlns="http://www.w3.org/2000/svg">
<path d="M17.0236 8.83175L13.6085 7.91667L14.5236 4.5016M10.0001 2.5V17.5V2.5ZM12.5001 3.33333L10.0001 5.83333L7.50007 3.33333H12.5001ZM7.50007 16.6667L10.0001 14.1667L12.5001 16.6667H7.50007ZM3.50488 6.25L16.4952 13.75L3.50488 6.25ZM5.47656 4.5016L6.39163 7.91667L2.97656 8.83175L5.47656 4.5016ZM14.5236 15.4984L13.6085 12.0833L17.0236 11.1683L14.5236 15.4984ZM3.50491 13.75L16.4953 6.24999L3.50491 13.75ZM2.97658 11.1683L6.39164 12.0833L5.47658 15.4984L2.97658 11.1683Z" stroke="#FD6D03" stroke-width="1.5" stroke-linecap="round" stroke-linejoin="round"/>
</svg>
