<svg width="29" height="29" viewBox="0 0 29 29" fill="none" xmlns="http://www.w3.org/2000/svg">
<path d="M14.4998 2.41675C7.82984 2.41675 2.4165 7.83008 2.4165 14.5001C2.4165 21.1701 7.82984 26.5834 14.4998 26.5834C21.1698 26.5834 26.5832 21.1701 26.5832 14.5001C26.5832 7.83008 21.1698 2.41675 14.4998 2.41675ZM14.4998 6.04175C16.5057 6.04175 18.1248 7.66091 18.1248 9.66675C18.1248 11.6726 16.5057 13.2917 14.4998 13.2917C12.494 13.2917 10.8748 11.6726 10.8748 9.66675C10.8748 7.66091 12.494 6.04175 14.4998 6.04175ZM14.4998 23.2001C11.479 23.2001 8.80859 21.6534 7.24984 19.3092C7.28609 16.9047 12.0832 15.5876 14.4998 15.5876C16.9044 15.5876 21.7136 16.9047 21.7498 19.3092C20.1911 21.6534 17.5207 23.2001 14.4998 23.2001Z" fill="black"/>
</svg>
