<svg width="17" height="17" viewBox="0 0 17 17" fill="none" xmlns="http://www.w3.org/2000/svg">
<path d="M8.50008 1.4165C4.59008 1.4165 1.41675 4.58984 1.41675 8.49984C1.41675 12.4098 4.59008 15.5832 8.50008 15.5832C12.4101 15.5832 15.5834 12.4098 15.5834 8.49984C15.5834 4.58984 12.4101 1.4165 8.50008 1.4165ZM8.50008 3.5415C9.67592 3.5415 10.6251 4.49067 10.6251 5.6665C10.6251 6.84234 9.67592 7.7915 8.50008 7.7915C7.32425 7.7915 6.37508 6.84234 6.37508 5.6665C6.37508 4.49067 7.32425 3.5415 8.50008 3.5415ZM8.50008 13.5998C6.72925 13.5998 5.16383 12.6932 4.25008 11.319C4.27133 9.90942 7.08342 9.13734 8.50008 9.13734C9.90967 9.13734 12.7288 9.90942 12.7501 11.319C11.8363 12.6932 10.2709 13.5998 8.50008 13.5998Z" fill="#010101"/>
</svg>
