<svg width="23" height="24" viewBox="0 0 23 24" fill="none" xmlns="http://www.w3.org/2000/svg">
<path d="M11.5002 4.5C6.7085 4.5 2.61641 7.61 0.958496 12C2.61641 16.39 6.7085 19.5 11.5002 19.5C16.2918 19.5 20.3839 16.39 22.0418 12C20.3839 7.61 16.2918 4.5 11.5002 4.5ZM11.5002 17C8.85516 17 6.7085 14.76 6.7085 12C6.7085 9.24 8.85516 7 11.5002 7C14.1452 7 16.2918 9.24 16.2918 12C16.2918 14.76 14.1452 17 11.5002 17ZM11.5002 9C9.90933 9 8.62516 10.34 8.62516 12C8.62516 13.66 9.90933 15 11.5002 15C13.091 15 14.3752 13.66 14.3752 12C14.3752 10.34 13.091 9 11.5002 9Z" fill="#FD6D03"/>
</svg>
