<svg width="15" height="15" viewBox="0 0 15 15" fill="none" xmlns="http://www.w3.org/2000/svg">
<path d="M7.50008 0.416504C3.59008 0.416504 0.416748 3.58984 0.416748 7.49984C0.416748 11.4098 3.59008 14.5832 7.50008 14.5832C11.4101 14.5832 14.5834 11.4098 14.5834 7.49984C14.5834 3.58984 11.4101 0.416504 7.50008 0.416504ZM7.50008 2.5415C8.67592 2.5415 9.62508 3.49067 9.62508 4.6665C9.62508 5.84234 8.67592 6.7915 7.50008 6.7915C6.32425 6.7915 5.37508 5.84234 5.37508 4.6665C5.37508 3.49067 6.32425 2.5415 7.50008 2.5415ZM7.50008 12.5998C5.72925 12.5998 4.16383 11.6932 3.25008 10.319C3.27133 8.90942 6.08342 8.13734 7.50008 8.13734C8.90967 8.13734 11.7288 8.90942 11.7501 10.319C10.8363 11.6932 9.27092 12.5998 7.50008 12.5998Z" fill="#010101"/>
</svg>
