<svg width="12" height="15" viewBox="0 0 12 15" fill="none" xmlns="http://www.w3.org/2000/svg">
<path d="M0 11C0 11.66 0.2925 12.2525 0.75 12.665V14C0.75 14.4125 1.0875 14.75 1.5 14.75H2.25C2.6625 14.75 3 14.4125 3 14V13.25H9V14C9 14.4125 9.3375 14.75 9.75 14.75H10.5C10.9125 14.75 11.25 14.4125 11.25 14V12.665C11.7075 12.2525 12 11.66 12 11V3.5C12 0.875 9.315 0.5 6 0.5C2.685 0.5 0 0.875 0 3.5V11ZM2.625 11.75C2.0025 11.75 1.5 11.2475 1.5 10.625C1.5 10.0025 2.0025 9.5 2.625 9.5C3.2475 9.5 3.75 10.0025 3.75 10.625C3.75 11.2475 3.2475 11.75 2.625 11.75ZM9.375 11.75C8.7525 11.75 8.25 11.2475 8.25 10.625C8.25 10.0025 8.7525 9.5 9.375 9.5C9.9975 9.5 10.5 10.0025 10.5 10.625C10.5 11.2475 9.9975 11.75 9.375 11.75ZM10.5 7.25H1.5V3.5H10.5V7.25Z" fill="white"/>
</svg>
