<svg width="52" height="52" viewBox="0 0 52 52" fill="none" xmlns="http://www.w3.org/2000/svg">
<path d="M26.0001 0.166748C11.7401 0.166748 0.166748 11.7401 0.166748 26.0001C0.166748 40.2601 11.7401 51.8334 26.0001 51.8334C40.2601 51.8334 51.8334 40.2601 51.8334 26.0001C51.8334 11.7401 40.2601 0.166748 26.0001 0.166748ZM26.0001 7.91675C30.2884 7.91675 33.7501 11.3784 33.7501 15.6667C33.7501 19.9551 30.2884 23.4167 26.0001 23.4167C21.7118 23.4167 18.2501 19.9551 18.2501 15.6667C18.2501 11.3784 21.7118 7.91675 26.0001 7.91675ZM26.0001 44.6001C19.5417 44.6001 13.8326 41.2934 10.5001 36.2817C10.5776 31.1409 20.8334 28.3251 26.0001 28.3251C31.1409 28.3251 41.4226 31.1409 41.5001 36.2817C38.1676 41.2934 32.4584 44.6001 26.0001 44.6001Z" fill="#565656"/>
</svg>
